<svg xmlns="http://www.w3.org/2000/svg" width="155.576" height="114.747" viewBox="0 0 155.576 114.747"><path fill="#FFF" d="M150.828 55.532s-9.823-38.578-16.788-47.984C128.15-.402 114.156-.876 108.38.76c-5.773 1.64-8.244 7.623-13.007 7.74-2.497.063-8.362.06-13.38.043V8.5s-1.716.013-4.205.025c-2.49-.012-4.205-.024-4.205-.024v.043c-5.017.017-10.883.02-13.38-.042C55.44 8.383 52.97 2.4 47.195.76 41.42-.875 27.425-.402 21.535 7.55 14.572 16.955 4.75 55.532 4.75 55.532S-3.557 93.217 1.8 104.647c5.36 11.43 18.13 12.056 22.058 7.322 3.93-4.733 14.646-27.416 16.342-30.362 1.696-2.947 3.482-3.215 4.91-3.305 1.78-.11 17.676-.075 28.116-.037v.037s1.785-.01 4.562-.02c2.776.01 4.562.02 4.562.02v-.037c10.44-.038 26.336-.074 28.115.037 1.43.09 3.215.357 4.91 3.305 1.698 2.946 12.414 25.63 16.343 30.36 3.93 4.734 16.7 4.11 22.058-7.32 5.357-11.43-2.948-49.116-2.948-49.116zM40.052 34.102c-5.59 0-10.12-4.532-10.12-10.122s4.53-10.12 10.12-10.12 10.12 4.53 10.12 10.12-4.53 10.12-10.12 10.12zm30.122 21.192c0 .982-.804 1.786-1.786 1.786h-5.06c-.982 0-1.786.804-1.786 1.786v5.06c0 .983-.804 1.787-1.786 1.787h-5.24c-.98 0-1.785-.804-1.785-1.786v-5.06c0-.983-.803-1.787-1.785-1.787h-5.06c-.982 0-1.786-.804-1.786-1.786v-5.24c0-.98.803-1.785 1.785-1.785h5.06c.982 0 1.786-.805 1.786-1.787v-5.06c0-.982.805-1.786 1.787-1.786h5.24c.982 0 1.786.804 1.786 1.786v5.06c0 .982.804 1.786 1.786 1.786h5.06c.98 0 1.785.803 1.785 1.785v5.24zm41.303 0c0 .982-.804 1.786-1.786 1.786h-5.06c-.98 0-1.785.804-1.785 1.786v5.06c0 .983-.804 1.787-1.786 1.787h-5.24c-.982 0-1.786-.804-1.786-1.786v-5.06c0-.983-.804-1.787-1.786-1.787h-5.06c-.982 0-1.786-.804-1.786-1.786v-5.24c0-.98.804-1.785 1.786-1.785h5.06c.982 0 1.786-.805 1.786-1.787v-5.06c0-.982.804-1.786 1.786-1.786h5.24c.98 0 1.785.804 1.785 1.786v5.06c0 .982.804 1.786 1.786 1.786h5.06c.983 0 1.787.803 1.787 1.785v5.24zm4.047-21.193c-5.59 0-10.12-4.53-10.12-10.12s4.53-10.12 10.12-10.12 10.12 4.53 10.12 10.12-4.53 10.12-10.12 10.12z"/></svg>
